<?xml version="1.0" encoding="utf-8"?>
<!-- Generator: Adobe Illustrator 16.0.0, SVG Export Plug-In . SVG Version: 6.00 Build 0)  -->
<!DOCTYPE svg PUBLIC "-//W3C//DTD SVG 1.1//EN" "http://www.w3.org/Graphics/SVG/1.1/DTD/svg11.dtd">
<svg version="1.1" id="Layer_1" xmlns="http://www.w3.org/2000/svg" xmlns:xlink="http://www.w3.org/1999/xlink" x="0px" y="0px"
	 width="96px" height="96px" viewBox="0 0 96 96" enable-background="new 0 0 96 96" xml:space="preserve">
<g>
	<path d="M56.136,54.169c7.537-9.325,19.481-29.181,13.313-42.174C66.193,5.138,58.977,1.66,48,1.66S29.807,5.138,26.551,11.995
		c-5.625,11.848,4.381,29.417,11.378,39.471l8.116-10.399c-5.769-9.089-10.321-19.291-8.22-23.717
		c1.325-2.791,6.943-3.208,10.175-3.208c3.23,0,8.804,0.437,10.173,3.206c3.681,7.439-10.264,26.563-10.307,26.499l-7.891,10.476
		c0.003,0.006,0.007,0.01,0.011,0.015c-10.52,13.68-22.464,28.218-25.555,31.653l9.277,8.35c2.964-3.294,13.824-16.488,24.02-29.62
		c0.003,0.003,0.006,0.007,0.009,0.011l8.386-10.572L56.136,54.169z"/>
	<path d="M57.865,57.439l-8.008,10.096c6.398,8.35,13.898,17.32,22.434,26.804l9.277-8.35
		C72.382,75.781,64.448,66.218,57.865,57.439z"/>
</g>
</svg>
