<?xml version="1.0" encoding="UTF-8" standalone="no"?>
<svg width="200px" height="200px" viewBox="0 0 200 200" version="1.1" xmlns="http://www.w3.org/2000/svg" xmlns:xlink="http://www.w3.org/1999/xlink">
    <!-- Generator: Sketch 3.7.2 (28276) - http://www.bohemiancoding.com/sketch -->
    <title>5</title>
    <desc>Created with Sketch.</desc>
    <defs>
        <rect id="path-1" x="0" y="0" width="200" height="200"></rect>
    </defs>
    <g id="pattern" stroke="none" stroke-width="1" fill="none" fill-rule="evenodd">
        <g id="5">
            <g>
                <mask id="mask-2" fill="white">
                    <use xlink:href="#path-1"></use>
                </mask>
                <use id="Mask" fill-opacity="0" fill="#D8D8D8" xlink:href="#path-1"></use>
                <g id="Group" mask="url(#mask-2)" stroke="#000000" stroke-opacity="0.02" stroke-width="1.43884892">
                    <polyline id="Shape" fill-opacity="0.0286666667" fill="#222222" transform="translate(12.470024, 12.470024) scale(1, -1) translate(-12.470024, -12.470024) " points="0 0 24.940048 24.940048 0 24.940048 0 0"></polyline>
                    <polyline id="Shape" fill-opacity="0.0286666667" fill="#222222" transform="translate(37.410072, 12.470024) scale(-1, -1) translate(-37.410072, -12.470024) " points="24.940048 0 49.8800959 24.940048 24.940048 24.940048 24.940048 0"></polyline>
                    <polyline id="Shape" fill-opacity="0.0286666667" fill="#222222" points="0 24.940048 24.940048 49.8800959 0 49.8800959 0 24.940048"></polyline>
                    <polyline id="Shape" fill-opacity="0.0286666667" fill="#222222" transform="translate(37.410072, 37.410072) scale(-1, 1) translate(-37.410072, -37.410072) " points="24.940048 24.940048 49.8800959 49.8800959 24.940048 49.8800959 24.940048 24.940048"></polyline>
                    <polyline id="Shape" fill-opacity="0.046" fill="#222222" transform="translate(62.350120, 12.470024) scale(-1, 1) translate(-62.350120, -12.470024) " points="49.8800959 0 74.8201439 24.940048 49.8800959 24.940048 49.8800959 0"></polyline>
                    <polyline id="Shape" fill-opacity="0.046" fill="#222222" transform="translate(87.290168, 37.410072) scale(1, -1) translate(-87.290168, -37.410072) " points="74.8201439 24.940048 99.7601918 49.8800959 74.8201439 49.8800959 74.8201439 24.940048"></polyline>
                    <polyline id="Shape" fill-opacity="0.0286666667" fill="#222222" transform="translate(62.350120, 37.410072) scale(-1, -1) translate(-62.350120, -37.410072) " points="49.8800959 24.940048 74.8201439 49.8800959 49.8800959 49.8800959 49.8800959 24.940048"></polyline>
                    <polyline id="Shape" fill-opacity="0.0286666667" fill="#222222" points="74.8201439 0 99.7601918 24.940048 74.8201439 24.940048 74.8201439 0"></polyline>
                    <polyline id="Shape" fill-opacity="0.0286666667" fill="#222222" transform="translate(112.230216, 12.470024) scale(1, -1) translate(-112.230216, -12.470024) " points="99.7601918 0 124.70024 24.940048 99.7601918 24.940048 99.7601918 0"></polyline>
                    <polyline id="Shape" fill-opacity="0.0286666667" fill="#222222" transform="translate(137.170264, 12.470024) scale(-1, -1) translate(-137.170264, -12.470024) " points="124.70024 0 149.640288 24.940048 124.70024 24.940048 124.70024 0"></polyline>
                    <polyline id="Shape" fill-opacity="0.0286666667" fill="#222222" points="99.7601918 24.940048 124.70024 49.8800959 99.7601918 49.8800959 99.7601918 24.940048"></polyline>
                    <polyline id="Shape" fill-opacity="0.0286666667" fill="#222222" transform="translate(137.170264, 37.410072) scale(-1, 1) translate(-137.170264, -37.410072) " points="124.70024 24.940048 149.640288 49.8800959 124.70024 49.8800959 124.70024 24.940048"></polyline>
                    <polyline id="Shape" fill-opacity="0.0373333333" fill="#DDDDDD" transform="translate(162.110312, 12.470024) scale(-1, 1) translate(-162.110312, -12.470024) " points="149.640288 0 174.580336 24.940048 149.640288 24.940048 149.640288 0"></polyline>
                    <polyline id="Shape" fill-opacity="0.0373333333" fill="#DDDDDD" transform="translate(187.050360, 37.410072) scale(1, -1) translate(-187.050360, -37.410072) " points="174.580336 24.940048 199.520384 49.8800959 174.580336 49.8800959 174.580336 24.940048"></polyline>
                    <polyline id="Shape" fill-opacity="0.072" fill="#DDDDDD" transform="translate(162.110312, 37.410072) scale(-1, -1) translate(-162.110312, -37.410072) " points="149.640288 24.940048 174.580336 49.8800959 149.640288 49.8800959 149.640288 24.940048"></polyline>
                    <polyline id="Shape" fill-opacity="0.072" fill="#DDDDDD" points="174.580336 0 199.520384 24.940048 174.580336 24.940048 174.580336 0"></polyline>
                    <polyline id="Shape" fill-opacity="0.072" fill="#DDDDDD" transform="translate(12.470024, 62.350120) scale(-1, 1) translate(-12.470024, -62.350120) " points="0 49.8800959 24.940048 74.8201439 0 74.8201439 0 49.8800959"></polyline>
                    <polyline id="Shape" fill-opacity="0.072" fill="#DDDDDD" transform="translate(37.410072, 87.290168) scale(1, -1) translate(-37.410072, -87.290168) " points="24.940048 74.8201439 49.8800959 99.7601918 24.940048 99.7601918 24.940048 74.8201439"></polyline>
                    <polyline id="Shape" fill-opacity="0.02" fill="#DDDDDD" transform="translate(12.470024, 87.290168) scale(-1, -1) translate(-12.470024, -87.290168) " points="0 74.8201439 24.940048 99.7601918 0 99.7601918 0 74.8201439"></polyline>
                    <polyline id="Shape" fill-opacity="0.02" fill="#DDDDDD" points="24.940048 49.8800959 49.8800959 74.8201439 24.940048 74.8201439 24.940048 49.8800959"></polyline>
                    <polyline id="Shape" fill-opacity="0.02" fill="#DDDDDD" transform="translate(62.350120, 62.350120) scale(1, -1) translate(-62.350120, -62.350120) " points="49.8800959 49.8800959 74.8201439 74.8201439 49.8800959 74.8201439 49.8800959 49.8800959"></polyline>
                    <polyline id="Shape" fill-opacity="0.02" fill="#DDDDDD" transform="translate(87.290168, 62.350120) scale(-1, -1) translate(-87.290168, -62.350120) " points="74.8201439 49.8800959 99.7601918 74.8201439 74.8201439 74.8201439 74.8201439 49.8800959"></polyline>
                    <polyline id="Shape" fill-opacity="0.02" fill="#DDDDDD" points="49.8800959 74.8201439 74.8201439 99.7601918 49.8800959 99.7601918 49.8800959 74.8201439"></polyline>
                    <polyline id="Shape" fill-opacity="0.02" fill="#DDDDDD" transform="translate(87.290168, 87.290168) scale(-1, 1) translate(-87.290168, -87.290168) " points="74.8201439 74.8201439 99.7601918 99.7601918 74.8201439 99.7601918 74.8201439 74.8201439"></polyline>
                    <polyline id="Shape" fill-opacity="0.124" fill="#DDDDDD" transform="translate(112.230216, 62.350120) scale(-1, 1) translate(-112.230216, -62.350120) " points="99.7601918 49.8800959 124.70024 74.8201439 99.7601918 74.8201439 99.7601918 49.8800959"></polyline>
                    <polyline id="Shape" fill-opacity="0.124" fill="#DDDDDD" transform="translate(137.170264, 87.290168) scale(1, -1) translate(-137.170264, -87.290168) " points="124.70024 74.8201439 149.640288 99.7601918 124.70024 99.7601918 124.70024 74.8201439"></polyline>
                    <polyline id="Shape" fill-opacity="0.115333333" fill="#222222" transform="translate(112.230216, 87.290168) scale(-1, -1) translate(-112.230216, -87.290168) " points="99.7601918 74.8201439 124.70024 99.7601918 99.7601918 99.7601918 99.7601918 74.8201439"></polyline>
                    <polyline id="Shape" fill-opacity="0.115333333" fill="#222222" points="124.70024 49.8800959 149.640288 74.8201439 124.70024 74.8201439 124.70024 49.8800959"></polyline>
                    <polyline id="Shape" fill-opacity="0.115333333" fill="#222222" transform="translate(162.110312, 62.350120) scale(1, -1) translate(-162.110312, -62.350120) " points="149.640288 49.8800959 174.580336 74.8201439 149.640288 74.8201439 149.640288 49.8800959"></polyline>
                    <polyline id="Shape" fill-opacity="0.115333333" fill="#222222" transform="translate(187.050360, 62.350120) scale(-1, -1) translate(-187.050360, -62.350120) " points="174.580336 49.8800959 199.520384 74.8201439 174.580336 74.8201439 174.580336 49.8800959"></polyline>
                    <polyline id="Shape" fill-opacity="0.115333333" fill="#222222" points="149.640288 74.8201439 174.580336 99.7601918 149.640288 99.7601918 149.640288 74.8201439"></polyline>
                    <polyline id="Shape" fill-opacity="0.115333333" fill="#222222" transform="translate(187.050360, 87.290168) scale(-1, 1) translate(-187.050360, -87.290168) " points="174.580336 74.8201439 199.520384 99.7601918 174.580336 99.7601918 174.580336 74.8201439"></polyline>
                    <polyline id="Shape" fill-opacity="0.15" fill="#222222" transform="translate(12.470024, 112.230216) scale(1, -1) translate(-12.470024, -112.230216) " points="0 99.7601918 24.940048 124.70024 0 124.70024 0 99.7601918"></polyline>
                    <polyline id="Shape" fill-opacity="0.15" fill="#222222" transform="translate(37.410072, 112.230216) scale(-1, -1) translate(-37.410072, -112.230216) " points="24.940048 99.7601918 49.8800959 124.70024 24.940048 124.70024 24.940048 99.7601918"></polyline>
                    <polyline id="Shape" fill-opacity="0.15" fill="#222222" points="0 124.70024 24.940048 149.640288 0 149.640288 0 124.70024"></polyline>
                    <polyline id="Shape" fill-opacity="0.15" fill="#222222" transform="translate(37.410072, 137.170264) scale(-1, 1) translate(-37.410072, -137.170264) " points="24.940048 124.70024 49.8800959 149.640288 24.940048 149.640288 24.940048 124.70024"></polyline>
                    <polyline id="Shape" fill-opacity="0.115333333" fill="#222222" transform="translate(62.350120, 112.230216) scale(-1, 1) translate(-62.350120, -112.230216) " points="49.8800959 99.7601918 74.8201439 124.70024 49.8800959 124.70024 49.8800959 99.7601918"></polyline>
                    <polyline id="Shape" fill-opacity="0.115333333" fill="#222222" transform="translate(87.290168, 137.170264) scale(1, -1) translate(-87.290168, -137.170264) " points="74.8201439 124.70024 99.7601918 149.640288 74.8201439 149.640288 74.8201439 124.70024"></polyline>
                    <polyline id="Shape" fill-opacity="0.115333333" fill="#222222" transform="translate(62.350120, 137.170264) scale(-1, -1) translate(-62.350120, -137.170264) " points="49.8800959 124.70024 74.8201439 149.640288 49.8800959 149.640288 49.8800959 124.70024"></polyline>
                    <polyline id="Shape" fill-opacity="0.115333333" fill="#222222" points="74.8201439 99.7601918 99.7601918 124.70024 74.8201439 124.70024 74.8201439 99.7601918"></polyline>
                    <polyline id="Shape" fill-opacity="0.115333333" fill="#222222" transform="translate(112.230216, 112.230216) scale(1, -1) translate(-112.230216, -112.230216) " points="99.7601918 99.7601918 124.70024 124.70024 99.7601918 124.70024 99.7601918 99.7601918"></polyline>
                    <polyline id="Shape" fill-opacity="0.115333333" fill="#222222" transform="translate(137.170264, 112.230216) scale(-1, -1) translate(-137.170264, -112.230216) " points="124.70024 99.7601918 149.640288 124.70024 124.70024 124.70024 124.70024 99.7601918"></polyline>
                    <polyline id="Shape" fill-opacity="0.115333333" fill="#222222" points="99.7601918 124.70024 124.70024 149.640288 99.7601918 149.640288 99.7601918 124.70024"></polyline>
                    <polyline id="Shape" fill-opacity="0.115333333" fill="#222222" transform="translate(137.170264, 137.170264) scale(-1, 1) translate(-137.170264, -137.170264) " points="124.70024 124.70024 149.640288 149.640288 124.70024 149.640288 124.70024 124.70024"></polyline>
                    <polyline id="Shape" fill-opacity="0.02" fill="#DDDDDD" transform="translate(162.110312, 112.230216) scale(-1, 1) translate(-162.110312, -112.230216) " points="149.640288 99.7601918 174.580336 124.70024 149.640288 124.70024 149.640288 99.7601918"></polyline>
                    <polyline id="Shape" fill-opacity="0.02" fill="#DDDDDD" transform="translate(187.050360, 137.170264) scale(1, -1) translate(-187.050360, -137.170264) " points="174.580336 124.70024 199.520384 149.640288 174.580336 149.640288 174.580336 124.70024"></polyline>
                    <polyline id="Shape" fill-opacity="0.124" fill="#DDDDDD" transform="translate(162.110312, 137.170264) scale(-1, -1) translate(-162.110312, -137.170264) " points="149.640288 124.70024 174.580336 149.640288 149.640288 149.640288 149.640288 124.70024"></polyline>
                    <polyline id="Shape" fill-opacity="0.124" fill="#DDDDDD" points="174.580336 99.7601918 199.520384 124.70024 174.580336 124.70024 174.580336 99.7601918"></polyline>
                    <polyline id="Shape" fill-opacity="0.124" fill="#DDDDDD" transform="translate(12.470024, 162.110312) scale(-1, 1) translate(-12.470024, -162.110312) " points="0 149.640288 24.940048 174.580336 0 174.580336 0 149.640288"></polyline>
                    <polyline id="Shape" fill-opacity="0.124" fill="#DDDDDD" transform="translate(37.410072, 187.050360) scale(1, -1) translate(-37.410072, -187.050360) " points="24.940048 174.580336 49.8800959 199.520384 24.940048 199.520384 24.940048 174.580336"></polyline>
                    <polyline id="Shape" fill-opacity="0.0893333333" fill="#DDDDDD" transform="translate(12.470024, 187.050360) scale(-1, -1) translate(-12.470024, -187.050360) " points="0 174.580336 24.940048 199.520384 0 199.520384 0 174.580336"></polyline>
                    <polyline id="Shape" fill-opacity="0.0893333333" fill="#DDDDDD" points="24.940048 149.640288 49.8800959 174.580336 24.940048 174.580336 24.940048 149.640288"></polyline>
                    <polyline id="Shape" fill-opacity="0.0893333333" fill="#DDDDDD" transform="translate(62.350120, 162.110312) scale(1, -1) translate(-62.350120, -162.110312) " points="49.8800959 149.640288 74.8201439 174.580336 49.8800959 174.580336 49.8800959 149.640288"></polyline>
                    <polyline id="Shape" fill-opacity="0.0893333333" fill="#DDDDDD" transform="translate(87.290168, 162.110312) scale(-1, -1) translate(-87.290168, -162.110312) " points="74.8201439 149.640288 99.7601918 174.580336 74.8201439 174.580336 74.8201439 149.640288"></polyline>
                    <polyline id="Shape" fill-opacity="0.0893333333" fill="#DDDDDD" points="49.8800959 174.580336 74.8201439 199.520384 49.8800959 199.520384 49.8800959 174.580336"></polyline>
                    <polyline id="Shape" fill-opacity="0.0893333333" fill="#DDDDDD" transform="translate(87.290168, 187.050360) scale(-1, 1) translate(-87.290168, -187.050360) " points="74.8201439 174.580336 99.7601918 199.520384 74.8201439 199.520384 74.8201439 174.580336"></polyline>
                    <polyline id="Shape" fill-opacity="0.0373333333" fill="#DDDDDD" transform="translate(112.230216, 162.110312) scale(-1, 1) translate(-112.230216, -162.110312) " points="99.7601918 149.640288 124.70024 174.580336 99.7601918 174.580336 99.7601918 149.640288"></polyline>
                    <polyline id="Shape" fill-opacity="0.0373333333" fill="#DDDDDD" transform="translate(137.170264, 187.050360) scale(1, -1) translate(-137.170264, -187.050360) " points="124.70024 174.580336 149.640288 199.520384 124.70024 199.520384 124.70024 174.580336"></polyline>
                    <polyline id="Shape" fill-opacity="0.0286666667" fill="#222222" transform="translate(112.230216, 187.050360) scale(-1, -1) translate(-112.230216, -187.050360) " points="99.7601918 174.580336 124.70024 199.520384 99.7601918 199.520384 99.7601918 174.580336"></polyline>
                    <polyline id="Shape" fill-opacity="0.0286666667" fill="#222222" points="124.70024 149.640288 149.640288 174.580336 124.70024 174.580336 124.70024 149.640288"></polyline>
                    <polyline id="Shape" fill-opacity="0.0286666667" fill="#222222" transform="translate(162.110312, 162.110312) scale(1, -1) translate(-162.110312, -162.110312) " points="149.640288 149.640288 174.580336 174.580336 149.640288 174.580336 149.640288 149.640288"></polyline>
                    <polyline id="Shape" fill-opacity="0.0286666667" fill="#222222" transform="translate(187.050360, 162.110312) scale(-1, -1) translate(-187.050360, -162.110312) " points="174.580336 149.640288 199.520384 174.580336 174.580336 174.580336 174.580336 149.640288"></polyline>
                    <polyline id="Shape" fill-opacity="0.0286666667" fill="#222222" points="149.640288 174.580336 174.580336 199.520384 149.640288 199.520384 149.640288 174.580336"></polyline>
                    <polyline id="Shape" fill-opacity="0.0286666667" fill="#222222" transform="translate(187.050360, 187.050360) scale(-1, 1) translate(-187.050360, -187.050360) " points="174.580336 174.580336 199.520384 199.520384 174.580336 199.520384 174.580336 174.580336"></polyline>
                </g>
            </g>
        </g>
    </g>
</svg>