<?xml version="1.0" encoding="UTF-8" standalone="no"?>
<!DOCTYPE svg PUBLIC "-//W3C//DTD SVG 1.1//EN" "http://www.w3.org/Graphics/SVG/1.1/DTD/svg11.dtd">
<svg width="100%" height="100%" viewBox="0 0 16 16" version="1.1" xmlns="http://www.w3.org/2000/svg" xmlns:xlink="http://www.w3.org/1999/xlink" xml:space="preserve" style="fill-rule:evenodd;clip-rule:evenodd;stroke-linejoin:round;stroke-miterlimit:1.41421;">
    <path d="M0,3.5l3.5,-3.5l-3.5,0l0,3.5Zm0,11.5l3.5,0l-3.5,-3.5l0,3.5Zm16,0l0,-3.5l-3.5,3.5l3.5,0Zm-3.5,-15l3.5,3.5l0.025,-3.5l-3.525,0Z" style="fill:#347f2b;fill-rule:nonzero;"/>
    <path d="M12.5,3l-9,0c0,0 -1.5,0.208 -1.5,1c0,0.792 0,8 0,8l12,0c0,0 0,-7.208 0,-8c0,-0.791 -1.5,-1 -1.5,-1Zm0.5,8l-10,0l0,-6l10,0l0,6Z" style="fill:#333;fill-rule:nonzero;"/>
</svg>
