<svg version="1.1" id="presetsIcons" xmlns="http://www.w3.org/2000/svg" xmlns:xlink="http://www.w3.org/1999/xlink" x="0px" y="0px" width="100%" height="100%" viewBox="0 0 24 24" enable-background="new 0 0 24 24" xml:space="preserve">
	<symbol id="main-icon" viewBox="0 0 24 24">
		<path fill-rule="evenodd" clip-rule="evenodd" d="M20,5H4c0,0-1,0-1,1s0,13,0,13h18c0,0,0-12,0-13S20,5,20,5z M20,18H4V8h16V18z"/>
		<path fill-rule="evenodd" clip-rule="evenodd" fill="currentColor" d="M0,6l4-4H0V6z M0,22h4l-4-4V22z M24.031,22v-4l-4,4H24.031z M20.031,2l4,4V2H20.031z"/>
	</symbol>

	<symbol id="icon-phone" viewBox="0 0 24 24">
		<path fill-rule="evenodd" clip-rule="evenodd" d="M17.016,0h-10C7.016,0,5,0,5,2v20c0,0,0,2,2.016,2h10c0,0,1.984,0,1.984-2V2C19,2,19.016,0,17.016,0z M12,1h3v1h-3V1z M9.5,1C9.781,1,10,1.219,10,1.5C10,1.779,9.78,2,9.5,2S9,1.779,9,1.5C9,1.219,9.22,1,9.5,1z M12,23c-0.825,0-1-0.172-1-1 s0.175-1,1-1c0.826,0,1,0.172,1,1S12.825,23,12,23z M17,20H7V3h10V20z"/>
	</symbol>
	<symbol id="icon-tablet" viewBox="0 0 24 24">
		<path fill-rule="evenodd" clip-rule="evenodd" d="M18.521,0.007L5,0C3.5,0,3,1,3,2.5v19C2.997,22.984,4.016,24,5.488,24h13.034c1.479,0,2.474-1.016,2.479-2.5v-19 C21,1,20,0,18.521,0.007z M12,23c-0.552,0-1-0.447-1-1s0.448-1,1-1c0.553,0,1,0.447,1,1C13,22.551,12.553,23,12,23z M19,20H5V2h14 V20z"/>
	</symbol>
	<symbol id="icon-laptop" viewBox="0 0 24 24">
		<path fill-rule="evenodd" clip-rule="evenodd" d="M13,19v1h-2v-1H0v1c0,0.5,1,1,2,1h20c1,0,2-0.484,2-1v-1H13z"/>
		<path fill-rule="evenodd" clip-rule="evenodd" d="M3.5,18h17c1,0,1.5-0.5,1.5-1.5v-12c0-1-0.5-1.5-1.5-1.5h-17C2.5,3,2,3.5,2,4.5v12C2,17.5,2.5,18,3.5,18z M4,5h16v11H4V5z"/>
	</symbol>
	<symbol id="icon-desktop" viewBox="0 0 24 24">
		<path fill-rule="evenodd" clip-rule="evenodd" d="M15,20.496V19H9v1.496l-2,0.5C7,20.996,7,22,8,22s7.243,0,8,0c1,0,1-1.004,1-1.004L15,20.496z"/>
		<path fill-rule="evenodd" clip-rule="evenodd" d="M22.5,2h-21C1,2,0,2.531,0,3.5v13C0,17.516,1,18,1.5,18H11v-1h2v1h9.5c0.5,0,1.5-0.484,1.5-1.5v-13C24,2.516,23,2,22.5,2z M22,16H2V4h20V16z"/>
	</symbol>

	<symbol id="icon-rotate" viewBox="0 0 24 24">
		<path class="portrait" fill-rule="evenodd" clip-rule="evenodd" d="M0,1.5v17C0,19.4,0.626,20,1.5,20h10c0.873,0,1.5-0.6,1.5-1.5v-17C13,0.603,12.373,0,11.5,0h-10 C0.626,0,0,0.603,0,1.5z M2,3c0-0.672,0.393-1,1-1h7c0.608,0,1,0.328,1,1v14c0,0.672-0.392,1-1,1H3c-0.607,0-1-0.328-1-1V3z"/>
		<path class="landscape behind alt"  fill="currentColor" fill-rule="evenodd" clip-rule="evenodd" d="M4,16v-3.5C4,11.628,4.601,11,5.5,11h4l-1,1H6c-0.67,0-1,0.392-1,1v3H4z"/>
		<path class="landscape alt"  fill="currentColor" fill-rule="evenodd" clip-rule="evenodd" d="M21,22c0.671,0,1-0.391,1-1v-7c0-0.606-0.329-1-1-1h-6v-2h7.5c0.899,0,1.5,0.628,1.5,1.5v10 c0,0.872-0.601,1.5-1.5,1.5H5.484C4.586,24,4,23.372,4,22.5V22"/>
	</symbol>

	<symbol id="icon-rotate-v" viewBox="0 0 24 24">
		<!--<path d="M0,20c0,0,0-8,0-16c0-2.99,0.999-4,4-4c4,0,20,0,20,0v4C24,4,6,4,4,4S3,4,2,4c0,1,0,16,0,16H0z"/>
		<path fill="currentColor" d="M17.025,12.024v3l5-4.024l-5-3.976v3c-4,0-11,1.976-11,15.976C7.025,13,15.025,12.024,17.025,12.024z"/>-->

		<path fill-rule="evenodd" clip-rule="evenodd" d="M0,20c0,0,0-8,0-16c0-2.99,0.999-4,4-4c4,0,20,0,20,0v4C24,4,6,4,4,4S3,4,2,4c0,1,0,16,0,16H0z"/>
		<path fill="currentColor" d="M16,14l4-3l-4-3v2c-3.866,0-7,3.134-7,7c0,2.378,1.187,4.479,3,5.745V20c-0.654-0.845-1-1.849-1-3c0-2.762,2.238-5,5-5V14z"/>
	</symbol>

	<symbol id="icon-rotate-w" viewBox="0 0 24 24">
		<!--<path d="M6,24c0,0,0-1,0-9c0-2.99,0.999-4,4-4c4,0,14,0,14,0v4c0,0-12,0-14,0s-1,0-2,0c0,1,0,9,0,9H6z"/>
		<path fill="currentColor" d="M11,5v3l5-4.024L11,0v3C7,3,0,4.976,0,18.976C1,5.976,9,5,11,5z"/>-->

		<path fill-rule="evenodd" clip-rule="evenodd" d="M7,24c0,0,0-2,0-10c0-2.99,0.999-4,4-4c4,0,13,0,13,0v4c0,0-11,0-13,0s-1,0-2,0c0,1,0,10,0,10H7z"/>
		<path fill="currentColor" d="M7,6l4-3L7,0v2C3.134,2,0,5.134,0,9c0,2.378,1.187,4.479,3,5.745V12c-0.654-0.845-1-1.849-1-3c0-2.761,2.239-5,5-5V6z"/>
	</symbol>

	<symbol id="icon-edit" viewBox="0 0 24 24">
		<path class="pencil-eraser" d="M19.537,1.906l-2.68-1.685c-0.678-0.424-1.568-0.22-1.993,0.457l-1.058,1.681l5.126,3.219l1.059-1.68 C20.416,3.221,20.212,2.33,19.537,1.906z"/>
		<rect class="pencil-body alt"  fill="currentColor" x="8.398" y="3.988" transform="matrix(-0.8469 -0.5318 0.5318 -0.8469 14.8026 27.9481)" width="6.054" height="15.709"/>
		<polygon class="pencil-tip" points="3.901,20.975 3.787,24 6.463,22.586 8.95,21.271 4.003,18.163 "/>
	</symbol>

	<symbol id="icon-add" viewBox="0 0 24 24">
		<polygon points="23 10 13 10 13 0 10 0 10 10 0 10 0 13 10 13 10 23 13 23 13 13 23 13 23 10"/>
	</symbol>

	<symbol id="icon-arrow-left" viewBox="0 0 24 24">
		<polygon points="9,4 9,10 23,10 23,13 9,13 9,19 3,12 3,11 "/>
	</symbol>

	<symbol id="icon-arrow-right" viewBox="0 0 24 24">
		<polygon points="15,4 15,10 1,10 1,13 15,13 15,19 21,12 21,11 "/>
	</symbol>

	<symbol id="icon-trash" viewBox="0 0 16 16">
		<path d="M2,1c0,0-1,0-1,1s1,1,1,1h12c0,0,1,0,1-1s-1-1-1-1h-3c0,0,0-1-1-1S7,0,6,0S5,1,5,1H2z"/>
		<path fill="currentColor" d="M2,4c0,0,1.1,10.7,1.1,11c0,1,1,1,1,1l8,0c0,0,0.9,0,0.9-1c0-0.3,1-11,1-11H2z M7,13c0,0,0,1-1,1s-1-1-1-1V7c0,0,0.1-1,1-1s1,1,1,1V13z M11,13c0,0,0,1-1,1s-1-1-1-1V7c0,0,0-1,1-1s1,1,1,1V13z"/>
	</symbol>

	<symbol id="icon-resize-tooltip" viewBox="0 0 24 24">
		<polygon fill="currentColor" points="23,23 23,21 22,21 22,23 21,23 21,21 20,21 20,23 19,23 19,19 18,19 18,23 17,23 17,21 16,21 16,23 15,23 15,21
			14,21 14,23 13,23 13,21 12,21 12,23 11,23 11,21 10,21 10,23 9,23 9,21 8,21 8,23 7,23 7,19 6,19 6,23 5,23 5,21 4,21 4,23 3,23
			3,21 2,21 2,23 0,23 0,24 24,24 24,23 "/>
		<path d="M9.958,9.704C9.767,9.556,9.576,9.409,9.385,9.261c0.697-0.767,1.464-1.524,2.373-2.039
			c0.598-0.336,1.809-0.965,2.467-0.422c0.44,0.365,0.097,1.159-0.02,1.595c-0.313,1.17-0.677,2.327-1.01,3.491
			c-0.374,1.307-0.971,2.809-0.971,4.189c0,0.874,0.952,0.092,1.216-0.12c0.418-0.335,0.815-0.697,1.206-1.064
			c0.134,0.016,0.405,0.395,0.508,0.494C14.183,16.301,12.685,18,11.208,18c-1.446,0-0.929-1.956-0.749-2.815
			c0.339-1.619,0.805-3.214,1.278-4.799c0.113-0.378,1.048-2.531,0.012-2.167C11.053,8.464,10.464,9.209,9.958,9.704z"/>
		<path d="M15.076,1.081c1.524,0,0.938,2.397-0.365,2.397C13.222,3.478,13.748,1.081,15.076,1.081z"/>
	</symbol>

	<symbol id="icon-popup" viewBox="0 0 24 24">
		<path d="M6.75,10C3.274,10,0,10,0,10v4c0,0,2.639,0,5.566,0C5.86,12.53,6.255,11.193,6.75,10z"/>
		<path d="M15.5,10.444c-1.068,0.744-2.126,1.87-2.96,3.556c0.183,0,0.339,0,0.46,0c2,0,1,0,2,0c0,1,0,10,0,10h2c0,0,0-2,0-10C17,12.086,16.582,10.99,15.5,10.444z"/>
		<path class="alt" fill="currentColor" d="M19,6v3l5-4.024L19,1v3C15,4,8,5.976,8,19.976C9,6.976,17,6,19,6z"/>
	</symbol>

	<symbol id="icon-outline" viewBox="0 0 24 24">
		<polygon points="23,0 16,0 16,1 23,1 23,8 24,8 24,1 24,0 "/>
		<polygon points="23,16 23,23 16,23 16,24 23,24 24,24 24,23 24,16 "/>
		<polygon points="8,0 1,0 0,0 0,1 0,8 1,8 1,1 8,1 "/>
		<polygon points="1,23 1,16 0,16 0,23 0,24 1,24 8,24 8,23 "/>
	</symbol>




	<symbol id="icon-settings" viewBox="0 0 24 24">
		<path class="outter-gear" d="M23.919,10.641l-2.15-0.765c-0.256-1.186-0.726-2.29-1.361-3.278l0.98-2.062c-0.567-0.711-1.212-1.356-1.925-1.924
			l-2.061,0.98c-0.988-0.636-2.093-1.105-3.278-1.362l-0.765-2.149C12.912,0.032,12.46,0,12,0s-0.912,0.032-1.359,0.082L9.878,2.23
			C8.691,2.487,7.586,2.957,6.597,3.593l-2.06-0.98C3.825,3.181,3.181,3.825,2.613,4.537l0.98,2.06
			C2.957,7.586,2.487,8.691,2.23,9.877l-2.148,0.763C0.032,11.088,0,11.54,0,12s0.032,0.912,0.082,1.359l2.149,0.765
			c0.257,1.186,0.726,2.291,1.362,3.278l-0.98,2.061c0.567,0.713,1.212,1.357,1.924,1.925l2.062-0.979
			c0.988,0.636,2.092,1.104,3.278,1.361l0.764,2.149C11.088,23.969,11.539,24,12,24c0.46,0,0.912-0.031,1.359-0.081l0.766-2.15
			c1.185-0.257,2.289-0.726,3.276-1.36l2.062,0.979c0.713-0.567,1.357-1.212,1.925-1.925l-0.979-2.062
			c0.635-0.987,1.104-2.092,1.36-3.276l2.15-0.766C23.969,12.912,24,12.46,24,12S23.969,11.088,23.919,10.641z M12,20.5
			c-4.695,0-8.5-3.806-8.5-8.5c0-4.695,3.805-8.5,8.5-8.5c4.694,0,8.5,3.805,8.5,8.5C20.5,16.694,16.694,20.5,12,20.5z"/>
		<path class="inner-gear alt"  fill="currentColor" d="M12,5.5c-3.589,0-6.5,2.91-6.5,6.5c0,3.589,2.911,6.5,6.5,6.5c3.589,0,6.5-2.911,6.5-6.5C18.5,8.41,15.589,5.5,12,5.5z
			M12,15.04c-1.679,0-3.04-1.361-3.04-3.04c0-1.679,1.361-3.04,3.04-3.04c1.679,0,3.04,1.361,3.04,3.04
			C15.04,13.679,13.679,15.04,12,15.04z"/>
	</symbol>

	<symbol id="icon-bug" viewBox="0 0 24 24">
		<path d="M15.6,1.6c0.1,0.3,0.1,0.6,0.1,0.9c0,2.1-1.7,3.8-3.8,3.8S8.3,4.6,8.3,2.5c0-0.3,0.1-0.6,0.1-0.9C7.5,2.5,7,3.7,7,5c0,2.8,2.2,5,5,5s5-2.2,5-5C17,3.7,16.5,2.5,15.6,1.6z"/>
		<polygon fill="currentColor" points="1,7 2,6 3,9 6,11 5,12 2,10 "/>
		<polygon fill="currentColor" points="3,21 2,20 3,17 6,16 7,17 4,18 "/>
		<polygon fill="currentColor" points="23,7 22,6 21,9 18,11 19,12 22,10 "/>
		<polygon fill="currentColor" points="21,21 22,20 21,17 18,16 17,17 20,18 "/>
		<polygon fill="currentColor" points="0,14 1,15 3,14 5,15 6,14 3,13 "/>
		<polygon fill="currentColor" points="18,14 19,15 21,14 23,15 24,14 21,13 "/>
		<path fill="currentColor" d="M16.8,8.6c-0.9,1.2-2.3,2.1-3.8,2.4v11.9c3.9-0.5,7-3.9,7-7.9C20,12.4,18.8,10.1,16.8,8.6z"/>
		<path fill="currentColor" d="M7.2,8.6C5.2,10.1,4,12.4,4,15c0,4.1,3.1,7.4,7,7.9V11C9.4,10.8,8.1,9.9,7.2,8.6z"/>
	</symbol>
	<symbol id="icon-help" viewBox="0 0 24 24">
		<g>
			<path fill="currentColor" d="M12.001,0C8.795,0 5.782,1.247 3.517,3.514C1.25,5.78 0,8.794 0,12C0,15.206 1.247,18.22 3.515,20.486C5.779,22.753 8.793,24 11.999,24C15.205,24 18.218,22.751 20.485,20.484C25.165,15.806 25.165,8.193 20.485,3.514C18.221,1.248 15.206,0 12.001,0ZM11.999,2.038L12.001,2.038C14.663,2.038 17.164,3.074 19.044,4.954C22.928,8.839 22.928,15.159 19.044,19.043C17.161,20.926 14.658,21.962 11.997,21.962C9.336,21.962 6.835,20.927 4.954,19.045C3.073,17.164 2.036,14.662 2.036,12C2.036,9.338 3.072,6.837 4.955,4.954C6.837,3.074 9.338,2.038 11.999,2.038L11.999,2.038Z" />
			<path d="M12.047,6.306C11.259,6.306 10.568,6.468 9.977,6.792C9.386,7.116 8.937,7.523 8.628,8.017C8.319,8.51 8.164,8.997 8.164,9.477C8.164,9.709 8.26,9.925 8.455,10.125C8.649,10.325 8.889,10.425 9.171,10.425C9.651,10.425 9.977,10.139 10.15,9.568C10.331,9.021 10.554,8.608 10.817,8.327C11.08,8.047 11.489,7.907 12.045,7.907C12.521,7.907 12.909,8.046 13.209,8.323C13.51,8.602 13.661,8.943 13.661,9.347C13.661,9.554 13.612,9.747 13.512,9.923C13.415,10.1 13.294,10.26 13.148,10.405C13.005,10.549 12.771,10.763 12.447,11.046C12.079,11.369 11.785,11.648 11.568,11.884C11.351,12.119 11.176,12.391 11.044,12.703C10.913,13.015 10.847,13.382 10.847,13.807C10.847,14.146 10.937,14.401 11.116,14.573C11.295,14.745 11.518,14.831 11.781,14.831C12.286,14.831 12.587,14.568 12.683,14.042C12.739,13.794 12.781,13.621 12.808,13.522C12.836,13.424 12.875,13.325 12.925,13.226C12.975,13.127 13.054,13.019 13.157,12.9C13.259,12.781 13.399,12.643 13.57,12.486C14.192,11.93 14.624,11.534 14.864,11.299C15.103,11.064 15.31,10.785 15.485,10.461C15.66,10.138 15.746,9.761 15.746,9.331C15.746,8.786 15.595,8.281 15.288,7.815C14.983,7.349 14.548,6.981 13.987,6.711C13.428,6.441 12.78,6.306 12.047,6.306L12.047,6.306ZM11.866,15.521C11.541,15.521 11.269,15.629 11.046,15.847C10.823,16.065 10.712,16.332 10.712,16.651C10.712,17.011 10.827,17.29 11.058,17.489C11.288,17.689 11.558,17.789 11.866,17.789C12.163,17.789 12.427,17.687 12.654,17.485C12.881,17.284 12.994,17.005 12.994,16.651C12.994,16.332 12.888,16.064 12.67,15.847C12.451,15.629 12.185,15.521 11.866,15.521Z" />
		</g>
	</symbol>
	<symbol id="icon-thumbs-up" viewBox="0 0 24 24">
		<path d="M6.429,21.404L6.429,9.869L0,9.869L0,21.404L6.429,21.404Z"/>
		<path d="M7.186,10.436L7.186,20.792L9.392,21.625C10.337,21.97 11.409,22.35 12.449,22.633C13.489,22.917 14.497,23.106 15.57,23.231C16.641,23.358 17.775,23.42 18.594,23.39C19.413,23.358 19.918,23.232 20.36,23.011C20.801,22.791 21.179,22.475 21.463,22.128C21.746,21.782 21.936,21.404 22.03,21.089C22.125,20.774 22.125,20.521 22.155,20.269C22.188,20.016 22.25,19.765 22.314,19.575C22.376,19.387 22.44,19.261 22.534,19.072L22.85,18.41C22.944,18.189 23.007,18 23.039,17.748C23.069,17.496 23.069,17.18 23.069,16.897C23.069,16.613 23.069,16.361 23.133,16.078C23.196,15.794 23.322,15.479 23.417,15.226L23.637,14.596C23.701,14.407 23.764,14.218 23.764,14.029C23.764,13.84 23.701,13.651 23.637,13.461C23.574,13.272 23.511,13.083 23.511,12.926C23.511,12.768 23.574,12.642 23.669,12.421C23.764,12.201 23.889,11.885 23.953,11.539C24.016,11.192 24.016,10.814 23.953,10.436C23.889,10.059 23.764,9.679 23.543,9.333C23.322,8.986 23.007,8.672 22.661,8.451C22.314,8.23 21.936,8.103 21.179,8.04C20.422,7.977 19.288,7.977 18.563,7.946C17.839,7.915 17.523,7.852 17.366,7.789C17.208,7.725 17.208,7.663 17.334,7.41C17.46,7.158 17.712,6.717 17.901,6.244C18.09,5.771 18.217,5.268 18.28,4.699C18.343,4.133 18.343,3.502 18.28,2.935C18.217,2.368 18.09,1.864 17.839,1.423C17.586,0.982 17.208,0.603 16.672,0.351C16.136,0.099 15.443,-0.027 14.908,0.005C14.372,0.036 13.993,0.225 13.741,0.603C13.489,0.982 13.363,1.549 13.237,2.274C13.11,2.999 12.985,3.88 12.48,4.889C11.976,5.897 11.094,7.032 10.334,7.883C9.574,8.734 8.936,9.301 8.431,9.681C7.927,10.059 7.556,10.247 7.186,10.436Z"/>
	</symbol>
	<symbol id="icon-trophy" viewBox="0 0 24 24">
		<rect x="8" y="3" width="8" height="8" />
		<path fill="currentColor" d="M23.381,6.001L23.381,1.885L18.417,1.885L18.417,0L5.583,0L5.583,1.885L0.619,1.885L0.619,6.001C0.619,9.014 3.026,11.47 6.016,11.562C6.792,13.571 8.547,15.103 10.693,15.551L10.693,17.552C8.995,18.054 7.698,19.504 7.415,21.283L5.674,21.283L5.674,24L18.326,24L18.326,21.282L16.585,21.282C16.302,19.504 15.006,18.054 13.307,17.552L13.307,15.551C15.453,15.102 17.209,13.571 17.984,11.562C20.975,11.47 23.381,9.014 23.381,6.001ZM13.303,5.606L15.513,6.257L14.108,8.083L14.137,9.149L14.171,10.387L12,9.615L9.829,10.387L9.863,9.149L9.893,8.083L8.487,6.257L10.698,5.606L11.588,4.307L12,3.705L12.412,4.307L13.303,5.606ZM3.041,6.001L3.041,4.307L5.583,4.307L5.583,9.089C4.136,8.806 3.041,7.53 3.041,6.001ZM20.959,6.001C20.959,7.53 19.863,8.806 18.417,9.089L18.417,4.307L20.959,4.307L20.959,6.001Z" />
	</symbol>
	<symbol id="icon-cart" viewBox="0 0 24 24">
		<path d="M7.565,17.929C6.276,17.929 5.226,18.994 5.226,20.304C5.226,21.593 6.276,22.643 7.565,22.643C8.897,22.643 9.94,21.615 9.94,20.304C9.94,18.972 8.897,17.929 7.565,17.929Z" />
		<path d="M20.082,17.929C18.772,17.929 17.709,18.994 17.709,20.304C17.709,21.593 18.772,22.643 20.082,22.643C21.373,22.643 22.424,21.593 22.424,20.304C22.424,18.972 21.395,17.929 20.082,17.929Z" />
		<path d="M23.786,4.847C23.602,4.617 23.325,4.485 23.031,4.485L5.27,4.485L4.345,1.988C4.205,1.609 3.844,1.357 3.439,1.357L0.967,1.357C0.433,1.357 0,1.79 0,2.324C0,2.857 0.433,3.291 0.967,3.291L2.766,3.291L7.366,15.715C7.509,16.098 7.873,16.346 8.273,16.346C8.311,16.346 8.35,16.343 8.389,16.34L21.285,14.792C21.693,14.743 22.026,14.444 22.116,14.041L23.977,5.661C24.04,5.375 23.97,5.075 23.786,4.847ZM21.182,9.32L17.319,9.32L17.319,6.419L21.827,6.419L21.182,9.32ZM12.483,9.32L12.483,6.419L16.352,6.419L16.352,9.32L12.483,9.32ZM16.352,10.287L16.352,13.436L12.483,13.899L12.483,10.286L16.352,10.286L16.352,10.287ZM11.516,6.419L11.516,9.32L7.06,9.32L5.986,6.419L11.516,6.419ZM7.418,10.287L11.516,10.287L11.516,14.018L8.915,14.329L7.418,10.287ZM17.319,13.32L17.319,10.287L20.968,10.287L20.375,12.952L17.319,13.32Z" />
	</symbol>
	<symbol id="icon-check" viewBox="0 0 24 24">
		<path d="M23.165,3.748C22.96,3.758 22.766,3.848 22.625,3.997C17.844,8.959 13.044,13.431 8.225,18.397L1.329,12.973C1.183,12.843 0.994,12.772 0.799,12.772C0.361,12.772 0,13.132 0,13.57C0,13.834 0.13,14.08 0.347,14.229L7.801,20.086C8.121,20.335 8.583,20.303 8.866,20.011C13.814,14.874 18.783,10.282 23.773,5.104C23.918,4.954 24,4.754 24,4.546C24,4.107 23.639,3.747 23.201,3.747C23.189,3.747 23.177,3.747 23.165,3.748L23.165,3.748Z" />
	</symbol>

	<symbol id="icon-go" viewBox="0 0 24 24">
		<path d="M23.338,12c0,0.555-0.189,1.022-0.569,1.402L12.74,23.431C12.338,23.811,11.872,24,11.338,24
			c-0.524,0-0.986-0.189-1.387-0.569l-1.155-1.156c-0.391-0.391-0.586-0.857-0.586-1.401s0.195-1.012,0.586-1.401l4.513-4.515H2.464
			c-0.534,0-0.968-0.192-1.302-0.577c-0.333-0.386-0.5-0.85-0.5-1.395v-1.972c0-0.543,0.167-1.009,0.5-1.394
			c0.333-0.385,0.768-0.578,1.302-0.578H13.31L8.795,4.514C8.405,4.144,8.21,3.682,8.21,3.127c0-0.555,0.194-1.017,0.585-1.387
			l1.156-1.155C10.341,0.195,10.804,0,11.337,0c0.544,0,1.011,0.195,1.402,0.585l10.028,10.028C23.148,10.974,23.338,11.435,23.338,12
			z"/>
	</symbol>

	<symbol id="icon-reset" viewBox="0 0 24 24">
		<path d="M11.069,4.896L11.069,6.529C11.069,7.159 11.527,7.417 12.072,7.102L13.618,6.214C14.163,5.899 15.051,5.383 15.595,5.068L17.142,4.18C17.686,3.865 17.686,3.349 17.142,3.034L15.595,2.146C15.051,1.831 14.163,1.316 13.618,1.001L12.072,0.141C11.527,-0.174 11.069,0.055 11.069,0.657C11.069,1.058 11.069,1.574 11.069,2.032C5.741,2.261 1.473,6.672 1.473,12.057C1.473,14.693 2.504,17.099 4.166,18.903L6.2,16.87C5.054,15.609 4.338,13.919 4.338,12.057C4.338,8.248 7.317,5.125 11.069,4.896Z" />
		<path d="M19.834,5.097L17.8,7.13C18.946,8.391 19.662,10.081 19.662,11.943C19.662,15.666 16.827,18.703 13.217,19.075C13.217,18.875 13.217,18.56 13.217,18.216L13.217,17.471C13.217,16.841 12.759,16.583 12.215,16.898L10.668,17.786C10.124,18.101 9.236,18.617 8.692,18.932L7.145,19.791C6.601,20.106 6.601,20.622 7.145,20.937L8.692,21.825C9.236,22.14 10.124,22.656 10.668,22.971L12.215,23.859C12.759,24.174 13.217,23.945 13.217,23.343C13.217,22.742 13.217,22.226 13.217,22.226C13.217,22.226 13.217,22.111 13.217,21.94C18.431,21.567 22.527,17.242 22.527,11.943C22.527,9.307 21.496,6.901 19.834,5.097Z" />
	</symbol>
</svg>